<svg width="121" height="61" viewBox="0 0 121 61" fill="none" xmlns="http://www.w3.org/2000/svg">
<path fill-rule="evenodd" clip-rule="evenodd" d="M39.5538 60.51C23.1276 54.7969 9.29122 44.4354 0 30.7157C10.4539 16.392 20.8339 7.32058 42.45 0C20.5274 12.0201 18.8256 46.5139 39.5538 60.51ZM65.9106 38.59L67.9505 54.9L60.0105 40.5L52.0705 54.9L54.1105 38.58L39.2205 45.57L50.4505 33.56L34.3105 30.45L50.4505 27.34L39.2205 15.34L54.1105 22.32L52.0705 6L60.0105 20.4L67.9505 6L65.9106 22.32L80.8006 15.34L69.5705 27.34L85.7105 30.45L69.5705 33.56L80.8006 45.57L65.9106 38.59ZM80.4503 60.51C96.1503 55.68 111.45 44.14 120.02 30.68C114.28 19.75 92.6803 2.85 77.5703 0C99.6803 11.46 101.42 46.95 80.4503 60.51Z" fill="url(#paint0_linear_2468_937)"/>
<defs>
<linearGradient id="paint0_linear_2468_937" x1="7.69633e-07" y1="30" x2="120" y2="30" gradientUnits="userSpaceOnUse">
<stop stop-color="#D1CFC0"/>
<stop offset="1" stop-color="#F76F53"/>
</linearGradient>
</defs>
</svg>
